<svg width="1200" height="630" viewBox="0 0 1200 630" xmlns="http://www.w3.org/2000/svg" role="img" aria-label="Subwave — subtítulos con IA en tu navegador">
  <rect width="1200" height="630" fill="#070B10"/>

  <path d="M80 104 C100 80 120 80 128 104 C136 128 168 128 200 104" fill="none" stroke="#2DE0CE" stroke-width="9" stroke-linecap="round"/>
  <path d="M80 124 C100 106 120 106 128 124 C136 142 168 142 200 124" fill="none" stroke="#15B5A6" stroke-width="6" stroke-linecap="round"/>

  <text x="80" y="332" font-family="Outfit, Segoe UI, sans-serif" font-size="150" font-weight="600" fill="#EEF2F0" letter-spacing="-2">Subwave</text>
  <text x="84" y="402" font-family="Outfit, Segoe UI, sans-serif" font-size="42" font-weight="400" fill="#8A93A0">Subtítulos con IA en tu navegador</text>

  <path d="M80 510 C113 470 146 470 170 510 C194 550 227 550 260 510 C293 470 326 470 350 510 C374 550 407 550 440 510 C463 470 496 470 520 510 C544 550 577 550 610 510 C633 470 666 470 690 510 C714 550 747 550 780 510 C803 472 840 482 880 504 C910 520 950 510 1010 510 L1130 510" fill="none" stroke="#2DE0CE" stroke-width="8" stroke-linecap="round"/>

  <text x="80" y="588" font-family="JetBrains Mono, ui-monospace, monospace" font-size="30" font-weight="500" fill="#8A93A0">subwave.pro</text>
</svg>
